<svg width="100" height="100" viewBox="0 0 100 100" fill="none" xmlns="http://www.w3.org/2000/svg">
<path d="M83 26C83 32.6274 70.6879 38 55.5 38C40.3122 38 28 32.6274 28 26M83 26C83 19.3726 70.6879 14 55.5 14C40.3122 14 28 19.3726 28 26M83 26V82C83 88.64 70.7778 94 55.5 94C40.2222 94 28 88.64 28 82V26M83 54C83 60.64 70.7778 66 55.5 66C40.2222 66 28 60.64 28 54" fill="#323232"/>
<path d="M83 26C83 32.6274 70.6879 38 55.5 38C40.3122 38 28 32.6274 28 26M83 26C83 19.3726 70.6879 14 55.5 14C40.3122 14 28 19.3726 28 26M83 26V82C83 88.64 70.7778 94 55.5 94C40.2222 94 28 88.64 28 82V26M83 54C83 60.64 70.7778 66 55.5 66C40.2222 66 28 60.64 28 54" stroke="white" stroke-width="5" stroke-linecap="round" stroke-linejoin="round"/>
<path d="M28 9H88V69" stroke="#EB6864" stroke-width="4" stroke-miterlimit="10" stroke-linecap="round" stroke-linejoin="round"/>
<path d="M39.5385 57.4615L88 9" stroke="#EB6864" stroke-width="4" stroke-miterlimit="10" stroke-linecap="round" stroke-linejoin="round"/>
<path d="M32.6154 9C45.3077 9 55.6923 19.3846 55.6923 32.0769C55.6923 37.3846 53.8461 42 51.0769 45.9231" stroke="#EB6864" stroke-width="4" stroke-miterlimit="10" stroke-linecap="round" stroke-linejoin="round"/>
<path d="M51.0769 45.9231C55 42.9231 59.8461 41.3077 64.9231 41.3077C77.6154 41.3077 88 51.6923 88 64.3846" stroke="#EB6864" stroke-width="4" stroke-miterlimit="10" stroke-linecap="round" stroke-linejoin="round"/>
<path d="M55.6923 9C63.0769 9 69.0769 15 69.0769 22.3846C69.0769 25.3846 68.1538 28.1538 66.3077 30.4615" stroke="#EB6864" stroke-width="4" stroke-miterlimit="10" stroke-linecap="round" stroke-linejoin="round"/>
<path d="M66.5385 30.4615C68.8462 28.8462 71.6154 27.6923 74.6154 27.6923C82 27.6923 88 33.6923 88 41.0769" stroke="#EB6864" stroke-width="4" stroke-miterlimit="10" stroke-linecap="round" stroke-linejoin="round"/>
</svg>
