<svg width="76" height="90" viewBox="0 0 76 90" fill="none" xmlns="http://www.w3.org/2000/svg">
<path d="M70 19C70 25.6274 55.0017 31 36.5 31C17.9985 31 3 25.6274 3 19M70 19C70 12.3726 55.0017 7 36.5 7C17.9985 7 3 12.3726 3 19M70 19V75C70 81.64 55.1111 87 36.5 87C17.8889 87 3 81.64 3 75V19M70 47C70 53.64 55.1111 59 36.5 59C17.8889 59 3 53.64 3 47" fill="#EB6864"/>
<path d="M70 19C70 25.6274 55.0017 31 36.5 31C17.9985 31 3 25.6274 3 19M70 19C70 12.3726 55.0017 7 36.5 7C17.9985 7 3 12.3726 3 19M70 19V75C70 81.64 55.1111 87 36.5 87C17.8889 87 3 81.64 3 75V19M70 47C70 53.64 55.1111 59 36.5 59C17.8889 59 3 53.64 3 47" stroke="white" stroke-width="5" stroke-linecap="round" stroke-linejoin="round"/>
<path d="M10 2H74V66" stroke="#323232" stroke-width="4" stroke-miterlimit="10" stroke-linecap="round" stroke-linejoin="round"/>
<path d="M22.3077 53.6923L74 2" stroke="#323232" stroke-width="4" stroke-miterlimit="10" stroke-linecap="round" stroke-linejoin="round"/>
<path d="M14.9231 2C28.4615 2 39.5384 13.0769 39.5384 26.6154C39.5384 32.2769 37.5692 37.2 34.6154 41.3846" stroke="#323232" stroke-width="4" stroke-miterlimit="10" stroke-linecap="round" stroke-linejoin="round"/>
<path d="M34.6154 41.3846C38.8 38.1846 43.9692 36.4615 49.3846 36.4615C62.9231 36.4615 74 47.5385 74 61.0769" stroke="#323232" stroke-width="4" stroke-miterlimit="10" stroke-linecap="round" stroke-linejoin="round"/>
<path d="M39.5384 2C47.4154 2 53.8154 8.4 53.8154 16.2769C53.8154 19.4769 52.8307 22.4308 50.8615 24.8923" stroke="#323232" stroke-width="4" stroke-miterlimit="10" stroke-linecap="round" stroke-linejoin="round"/>
<path d="M51.1077 24.8923C53.5692 23.1692 56.5231 21.9385 59.7231 21.9385C67.6 21.9385 74 28.3385 74 36.2154" stroke="#323232" stroke-width="4" stroke-miterlimit="10" stroke-linecap="round" stroke-linejoin="round"/>
</svg>
