<svg width="68" height="68" viewBox="0 0 68 68" fill="none" xmlns="http://www.w3.org/2000/svg">
<path d="M2 2H66V66" stroke="white" stroke-width="4" stroke-miterlimit="10" stroke-linecap="round" stroke-linejoin="round"/>
<path d="M14.3077 53.6923L66 2" stroke="white" stroke-width="4" stroke-miterlimit="10" stroke-linecap="round" stroke-linejoin="round"/>
<path d="M6.92305 2C20.4615 2 31.5384 13.0769 31.5384 26.6154C31.5384 32.2769 29.5692 37.2 26.6154 41.3846" stroke="white" stroke-width="4" stroke-miterlimit="10" stroke-linecap="round" stroke-linejoin="round"/>
<path d="M26.6154 41.3846C30.8 38.1846 35.9692 36.4615 41.3846 36.4615C54.9231 36.4615 66 47.5385 66 61.0769" stroke="white" stroke-width="4" stroke-miterlimit="10" stroke-linecap="round" stroke-linejoin="round"/>
<path d="M31.5384 2C39.4154 2 45.8154 8.4 45.8154 16.2769C45.8154 19.4769 44.8307 22.4308 42.8615 24.8923" stroke="white" stroke-width="4" stroke-miterlimit="10" stroke-linecap="round" stroke-linejoin="round"/>
<path d="M43.1077 24.8923C45.5692 23.1692 48.5231 21.9385 51.7231 21.9385C59.6 21.9385 66 28.3385 66 36.2154" stroke="white" stroke-width="4" stroke-miterlimit="10" stroke-linecap="round" stroke-linejoin="round"/>
</svg>
